# Exported from Wings 3D 2.1.5
mtllib delta.mtl
o tetrahedron1
#42 vertices, 80 faces
v 0.0000000e+0 0.83691095 -0.63574950
v 0.0000000e+0 1.1381812e-3 1.15470054
v -1.00000000 1.1381812e-3 -0.57735027
v 1.00000000 1.1381812e-3 -0.57735027
v 0.12700000 0.14023659 -0.67162464
v -0.12700000 0.14023659 -0.67162464
v 0.0000000e+0 0.28337770 0.17617546
v 0.0000000e+0 0.14023659 -0.67162464
v 6.3500000e-2 0.13943092 0.15823789
v -6.3500000e-2 0.13943092 0.15823789
v 0.56350000 0.13943092 -0.70751776
v -0.56350000 0.13943092 -0.70751776
v -3.1750000e-2 0.66274236 -0.64471829
v -6.3500000e-2 0.48857377 -0.65368707
v -9.5250000e-2 0.31440518 -0.66265586
v 3.1750000e-2 0.66274236 -0.64471829
v 6.3500000e-2 0.48857377 -0.65368707
v 9.5250000e-2 0.31440518 -0.66265586
v -0.25000000 1.1381812e-3 0.72168784
v -0.11880000 1.1381812e-3 0.28867513
v -0.75000000 1.1381812e-3 -0.14433757
v 0.25000000 1.1381812e-3 0.72168784
v 0.11880000 1.1381812e-3 0.28867513
v 0.75000000 1.1381812e-3 -0.14433757
v 0.23612500 0.14003517 -0.68059792
v 0.34525000 0.13983376 -0.68957120
v 0.45437500 0.13963234 -0.69854448
v -0.23612500 0.14003517 -0.68059792
v -0.34525000 0.13983376 -0.68957120
v -0.45437500 0.13963234 -0.69854448
v -9.5250000e-2 0.14023659 -0.67162464
v -6.3500000e-2 0.14023659 -0.67162464
v -3.1750000e-2 0.14023659 -0.67162464
v 3.1750000e-2 0.14023659 -0.67162464
v 6.3500000e-2 0.14023659 -0.67162464
v 9.5250000e-2 0.14023659 -0.67162464
v 2.1166667e-2 4.7235760e-2 0.82254632
v 4.2333333e-2 9.3333338e-2 0.49039211
v -2.1166667e-2 4.7235760e-2 0.82254632
v -4.2333333e-2 9.3333338e-2 0.49039211
v 0.0000000e+0 0.18929786 0.50235048
v 0.0000000e+0 9.5218019e-2 0.82852551
vn 0.0000000e+0 0.46018549 -0.88782280
vn 0.0000000e+0 0.95528663 0.29568133
vn -3.7131896e-2 -0.61382091 -0.78857156
vn 3.4375797e-2 -0.68253910 -0.73004019
vn 0.36269212 -4.0443747e-2 -0.93103101
vn -0.36269212 -4.0443747e-2 -0.93103101
vn 0.0000000e+0 0.91186782 0.41048397
vn 0.0000000e+0 -0.26874954 -0.96321009
vn 0.54298820 0.82801532 0.13983719
vn -0.54298820 0.82801532 0.13983719
vn 0.15883338 0.91332954 -0.37496814
vn -0.15883338 0.91332954 -0.37496814
vn -0.73241240 0.16749819 -0.65993669
vn -0.57188320 0.14582151 -0.80727052
vn -0.39075913 0.14900086 -0.90835348
vn 0.57188320 0.14582151 -0.80727052
vn 0.57188320 0.14582151 -0.80727052
vn 0.44540033 0.16186511 -0.88057835
vn -0.96679372 -0.13896981 0.21446979
vn -0.82755904 -0.49023321 0.27352776
vn -0.39604592 -0.80569291 0.44046175
vn 0.96210659 -0.24541296 0.11884188
vn 0.95949227 -4.1742503e-3 0.28170402
vn 0.39604592 -0.80569291 0.44046175
vn -7.6436362e-2 0.34034143 -0.93719005
vn -7.6436362e-2 0.34034143 -0.93719005
vn -7.6436362e-2 0.34034143 -0.93719005
vn 7.6436362e-2 0.34034143 -0.93719005
vn 7.6436362e-2 0.34034143 -0.93719005
vn 7.6436362e-2 0.34034143 -0.93719005
vn 0.0000000e+0 -0.26874954 -0.96321009
vn 0.0000000e+0 -0.26874954 -0.96321009
vn 0.0000000e+0 -0.26874954 -0.96321009
vn 0.0000000e+0 -0.26874954 -0.96321009
vn 0.0000000e+0 -0.26874954 -0.96321009
vn 0.0000000e+0 -0.26874954 -0.96321009
vn 0.65037101 0.74566250 0.14493094
vn 0.79011609 0.60790968 7.8500852e-2
vn -0.74647181 0.65756924 0.10189472
vn -0.89661819 0.42722372 0.11642904
vn -0.30679436 0.91449547 0.26377122
vn 0.41133046 0.87578404 0.25260555
g tetrahedron1_default
usemtl default
s 1
f 1//1 13//13 7//7
f 1//1 16//16 13//13
f 2//2 39//39 19//19
f 2//2 42//42 39//39
f 3//3 8//8 4//4
f 3//3 10//10 12//12
f 3//3 21//21 10//10
f 4//4 21//21 3//3
f 4//4 27//27 11//11
f 5//5 4//4 36//36
f 5//5 9//9 25//25
f 5//5 18//18 9//9
f 5//5 36//36 18//18
f 6//6 3//3 28//28
f 6//6 15//15 31//31
f 7//7 10//10 41//41
f 7//7 15//15 10//10
f 7//7 16//16 1//1
f 8//8 3//3 33//33
f 8//8 15//15 18//18
f 8//8 18//18 34//34
f 9//9 18//18 7//7
f 9//9 24//24 4//4
f 9//9 41//41 38//38
f 10//10 15//15 6//6
f 10//10 20//20 40//40
f 10//10 30//30 12//12
f 11//11 9//9 4//4
f 11//11 27//27 9//9
f 12//12 30//30 3//3
f 13//13 16//16 14//14
f 14//14 7//7 13//13
f 14//14 17//17 15//15
f 15//15 7//7 14//14
f 16//16 7//7 17//17
f 17//17 7//7 18//18
f 17//17 14//14 16//16
f 18//18 15//15 17//17
f 19//19 22//22 2//2
f 19//19 39//39 20//20
f 20//20 10//10 21//21
f 20//20 22//22 19//19
f 21//21 24//24 20//20
f 22//22 20//20 23//23
f 22//22 37//37 2//2
f 23//23 20//20 24//24
f 23//23 38//38 22//22
f 24//24 9//9 23//23
f 24//24 21//21 4//4
f 25//25 4//4 5//5
f 25//25 9//9 26//26
f 26//26 4//4 25//25
f 26//26 9//9 27//27
f 27//27 4//4 26//26
f 28//28 3//3 29//29
f 28//28 10//10 6//6
f 29//29 3//3 30//30
f 29//29 10//10 28//28
f 30//30 10//10 29//29
f 31//31 3//3 6//6
f 31//31 15//15 32//32
f 32//32 3//3 31//31
f 32//32 15//15 33//33
f 33//33 3//3 32//32
f 33//33 15//15 8//8
f 34//34 4//4 8//8
f 34//34 18//18 35//35
f 35//35 4//4 34//34
f 35//35 18//18 36//36
f 36//36 4//4 35//35
f 37//37 22//22 38//38
f 37//37 42//42 2//2
f 38//38 23//23 9//9
f 38//38 42//42 37//37
f 39//39 41//41 40//40
f 40//40 20//20 39//39
f 40//40 41//41 10//10
f 41//41 9//9 7//7
f 41//41 39//39 42//42
f 42//42 38//38 41//41
