# Exported from Wings 3D 2.1.5
mtllib frustum2.mtl
o Cube1
#56 vertices, 128 faces
v -1.00000000 -0.69101692 -6.0751958e-2
v -2.06840000 -1.46881212 2.27106148
v -1.00000000 0.76498308 -6.0751958e-2
v -2.06840000 1.54277828 2.27106148
v 1.00000000 -0.69101692 -6.0751958e-2
v 2.06840000 -1.46881212 2.27106148
v 1.00000000 0.76498308 -6.0751958e-2
v 2.06840000 1.54277828 2.27106148
v -0.91952547 0.78574846 1.5022072e-3
v -1.93087773 1.52201290 2.20880732
v 1.93087773 1.52201290 2.20880732
v 0.91952547 0.78574846 1.5022072e-3
v -1.93087773 -1.44804674 2.20880732
v -0.91952547 -0.71178230 1.5022072e-3
v 0.91952547 -0.71178230 1.5022072e-3
v 1.93087773 -1.44804674 2.20880732
v -1.96320000 1.46619268 2.27106148
v -1.96320000 -1.39222652 2.27106148
v 1.96320000 -1.39222652 2.27106148
v 1.96320000 1.46619268 2.27106148
v -0.89480000 -0.61443132 -6.0751958e-2
v -0.89480000 0.68839748 -6.0751958e-2
v 0.89480000 0.68839748 -6.0751958e-2
v 0.89480000 -0.61443132 -6.0751958e-2
v 2.03987613 -1.36869590 2.20880732
v 1.02852387 -0.63243146 1.5022072e-3
v 1.02852387 0.70639762 1.5022072e-3
v 2.03987613 1.44266207 2.20880732
v -1.02852387 -0.63243146 1.5022072e-3
v -2.03987613 -1.36869590 2.20880732
v -2.03987613 1.44266207 2.20880732
v -1.02852387 0.70639762 1.5022072e-3
v -0.33333333 0.76498308 -6.0751958e-2
v 0.33333333 0.76498308 -6.0751958e-2
v -0.30650849 0.78574846 1.5022072e-3
v 0.30650849 0.78574846 1.5022072e-3
v -0.11111111 0.76498308 -6.0751958e-2
v 0.11111111 0.76498308 -6.0751958e-2
v -0.10216950 0.78574846 1.5022072e-3
v 0.10216950 0.78574846 1.5022072e-3
v -9.2000000e-3 1.14271116 -2.6374447e-2
v -8.4596343e-3 1.14443053 -2.1219802e-2
v 8.4596343e-3 1.14443053 -2.1219802e-2
v 9.2000000e-3 1.14271116 -2.6374447e-2
v -8.7353657e-3 1.14279540 -2.6121869e-2
v -8.0675559e-3 1.14434628 -2.1472380e-2
v 8.0675559e-3 1.14434628 -2.1472380e-2
v 8.7353657e-3 1.14279540 -2.6121869e-2
v 8.1061604e-3 1.14412068 -2.1200173e-2
v -8.1061604e-3 1.14412068 -2.1200173e-2
v -0.10165412 0.78605831 1.4825785e-3
v 0.10165412 0.78605831 1.4825785e-3
v -8.8484707e-3 1.14240222 -2.6402564e-2
v 8.8484707e-3 1.14240222 -2.6402564e-2
v 0.11059288 0.76529202 -6.0723842e-2
v -0.11059288 0.76529202 -6.0723842e-2
vn -0.37127050 -0.38740304 -0.84384661
vn -0.50648198 -0.79273464 0.33918697
vn -0.47356661 0.49414415 -0.72907902
vn -0.87391848 0.45594610 0.16846259
vn 0.53373387 -0.37128387 -0.75978710
vn 0.58053117 -0.80767541 0.10316969
vn 0.46182201 0.32125948 -0.82674832
vn 0.58053117 0.80767541 0.10316969
vn 0.61059428 0.75019372 0.25374003
vn 0.27661172 0.69290341 -0.66586096
vn -0.53909897 0.66184396 -0.52089815
vn -0.49177411 0.86266946 0.11815087
vn 0.68703988 -0.48238145 -0.54340072
vn 0.39804487 -0.76022063 0.51344413
vn -0.49177411 -0.86266946 0.11815087
vn -0.53909897 -0.66184396 -0.52089815
vn 0.65871136 -0.57593422 0.48414783
vn 0.47453186 0.52831133 0.70406438
vn -0.73671331 0.60155620 0.30884242
vn -0.50769440 -0.70860703 0.49002293
vn 0.63063419 0.58840121 0.50604795
vn 0.39130424 -0.75568043 -0.52519338
vn -0.37755329 -0.87986719 0.28859529
vn -0.50534503 0.84737078 0.16306186
vn 0.65915424 0.60839892 -0.44200276
vn 0.92382211 0.38276360 -6.6886271e-3
vn 0.63215028 -0.65150251 0.41944069
vn 0.47794779 -0.31319678 -0.82065442
vn -0.92382211 0.38276360 -6.6886271e-3
vn -0.58960722 0.47898174 -0.65033823
vn -0.58960722 -0.47898174 -0.65033823
vn -0.63215028 -0.65150251 0.41944069
vn 0.0000000e+0 0.69437951 -0.71960899
vn 0.0000000e+0 0.69437951 -0.71960899
vn 0.0000000e+0 0.92328821 0.38410790
vn 0.0000000e+0 0.92328821 0.38410790
vn -0.13606528 0.35455291 -0.92508295
vn 0.15780696 0.38157227 -0.91076867
vn -0.40849418 -6.3487388e-3 0.91273884
vn 0.33099085 0.10889721 0.93732943
vn -0.47140137 0.63232235 -0.61477573
vn -0.18517861 0.82544693 0.53324127
vn 0.33847667 0.79920054 0.49670116
vn 0.26782264 0.64758675 -0.71337398
vn -2.7804185e-14 0.94861932 -0.31641963
vn -1.2910162e-14 0.94861932 -0.31641963
vn 2.8204400e-14 0.94861932 -0.31641963
vn 4.0882179e-14 0.94861932 -0.31641963
vn -2.2028755e-15 6.3221878e-2 0.99799950
vn 1.6694629e-14 6.3221878e-2 0.99799950
vn 2.2451798e-15 6.3221878e-2 0.99799950
vn 1.3912191e-14 6.3221878e-2 0.99799950
vn 6.8925246e-17 9.0636669e-2 -0.99588403
vn 9.8319187e-14 9.0636669e-2 -0.99588403
vn 8.0412787e-17 9.0636669e-2 -0.99588403
vn 8.4273589e-14 9.0636669e-2 -0.99588403
g Cube1_default
usemtl default
s 1
f 1//1 14//14 2//2
f 1//1 24//24 5//5
f 1//1 29//29 3//3
f 2//2 13//13 6//6
f 2//2 18//18 4//4
f 2//2 30//30 1//1
f 3//3 9//9 33//33
f 3//3 22//22 1//1
f 3//3 32//32 4//4
f 4//4 10//10 3//3
f 4//4 17//17 8//8
f 4//4 30//30 2//2
f 5//5 15//15 1//1
f 5//5 24//24 7//7
f 5//5 26//26 6//6
f 6//6 15//15 5//5
f 6//6 19//19 2//2
f 6//6 25//25 8//8
f 7//7 12//12 8//8
f 7//7 27//27 5//5
f 7//7 34//34 12//12
f 8//8 10//10 4//4
f 8//8 20//20 6//6
f 8//8 28//28 7//7
f 9//9 3//3 10//10
f 9//9 22//22 35//35
f 10//10 8//8 11//11
f 10//10 17//17 9//9
f 11//11 8//8 12//12
f 11//11 20//20 10//10
f 12//12 20//20 11//11
f 12//12 34//34 36//36
f 12//12 36//36 23//23
f 13//13 2//2 14//14
f 13//13 19//19 16//16
f 14//14 1//1 15//15
f 14//14 21//21 13//13
f 15//15 6//6 16//16
f 15//15 24//24 14//14
f 16//16 6//6 13//13
f 16//16 19//19 15//15
f 17//17 4//4 18//18
f 17//17 10//10 20//20
f 17//17 32//32 22//22
f 18//18 2//2 19//19
f 18//18 13//13 21//21
f 18//18 30//30 17//17
f 19//19 6//6 20//20
f 19//19 13//13 18//18
f 19//19 25//25 24//24
f 20//20 8//8 17//17
f 20//20 12//12 23//23
f 20//20 28//28 19//19
f 21//21 1//1 22//22
f 21//21 14//14 24//24
f 21//21 24//24 1//1
f 21//21 30//30 18//18
f 22//22 9//9 17//17
f 22//22 32//32 21//21
f 22//22 38//38 23//23
f 23//23 7//7 24//24
f 23//23 27//27 20//20
f 23//23 34//34 7//7
f 23//23 39//39 22//22
f 24//24 15//15 19//19
f 24//24 27//27 23//23
f 25//25 6//6 26//26
f 25//25 19//19 28//28
f 26//26 5//5 27//27
f 26//26 24//24 25//25
f 27//27 7//7 28//28
f 27//27 24//24 26//26
f 28//28 8//8 25//25
f 28//28 20//20 27//27
f 29//29 1//1 30//30
f 29//29 21//21 32//32
f 30//30 4//4 31//31
f 30//30 21//21 29//29
f 31//31 4//4 32//32
f 31//31 17//17 30//30
f 32//32 3//3 29//29
f 32//32 17//17 31//31
f 33//33 22//22 3//3
f 33//33 35//35 37//37
f 34//34 23//23 38//38
f 35//35 22//22 39//39
f 35//35 33//33 9//9
f 36//36 38//38 40//40
f 37//37 22//22 33//33
f 37//37 55//55 38//38
f 38//38 22//22 37//37
f 38//38 36//36 34//34
f 38//38 44//44 40//40
f 38//38 55//55 44//44
f 39//39 23//23 40//40
f 39//39 37//37 35//35
f 39//39 41//41 37//37
f 39//39 51//51 42//42
f 40//40 23//23 36//36
f 40//40 51//51 39//39
f 41//41 39//39 42//42
f 41//41 45//45 44//44
f 41//41 53//53 37//37
f 42//42 45//45 41//41
f 42//42 49//49 43//43
f 43//43 40//40 44//44
f 43//43 47//47 42//42
f 43//43 49//49 40//40
f 44//44 47//47 43//43
f 44//44 53//53 41//41
f 45//45 42//42 46//46
f 46//46 42//42 47//47
f 46//46 47//47 45//45
f 47//47 44//44 48//48
f 48//48 44//44 45//45
f 48//48 45//45 47//47
f 49//49 42//42 50//50
f 50//50 42//42 51//51
f 50//50 52//52 49//49
f 51//51 40//40 52//52
f 51//51 52//52 50//50
f 52//52 40//40 49//49
f 53//53 44//44 54//54
f 54//54 44//44 55//55
f 54//54 55//55 53//53
f 55//55 37//37 56//56
f 56//56 37//37 53//53
f 56//56 53//53 55//55
