# Blender v2.67 (sub 0) OBJ File: ''
# www.blender.org
o Cube_Cube.003
v -1.000000 -1.000000 1.000000
v -1.000000 -1.000000 -1.000000
v 1.000000 -1.000000 -1.000000
v 1.000000 -1.000000 1.000000
v -1.000000 1.000000 1.000000
v -1.000000 1.000000 -1.000000
v 0.277172 1.000000 -1.000000
v 1.000000 1.000000 1.000000
v -0.277172 1.000000 0.277172
v -0.277172 1.000000 -1.000000
v -0.277172 -0.277172 -1.000000
v 1.000000 1.000000 -1.000000
v 0.277172 -0.277172 -1.000000
v 0.277172 1.000000 0.277172
v 0.277172 1.679248 -1.679248
v -0.277172 1.679248 -0.402076
v -0.277172 1.679248 -1.679248
v -0.277172 0.402076 -1.679248
v 0.277172 0.402076 -1.679248
v 0.277172 1.679248 -0.402076
vn -1.000000 0.000000 0.000000
vn 0.000000 -0.707107 -0.707107
vn 1.000000 -0.000000 0.000000
vn 0.000000 0.000000 1.000000
vn 0.000000 -1.000000 0.000000
vn 0.000000 1.000000 -0.000000
vn 0.000000 0.000000 -1.000000
vn 0.000000 0.707107 0.707107
s off
f 5//1 6//1 1//1
f 13//2 11//2 18//2
f 12//3 8//3 4//3
f 8//4 5//4 1//4
f 1//5 2//5 3//5
f 10//1 9//1 17//1
f 9//6 10//6 6//6
f 10//7 11//7 2//7
f 13//7 7//7 12//7
f 11//7 13//7 2//7
f 7//6 14//6 12//6
f 14//6 9//6 5//6
f 17//7 15//7 19//7
f 20//6 15//6 17//6
f 7//3 13//3 19//3
f 9//8 14//8 20//8
f 11//1 10//1 17//1
f 14//3 7//3 20//3
f 6//1 2//1 1//1
f 19//2 13//2 18//2
f 3//3 12//3 4//3
f 4//4 8//4 1//4
f 4//5 1//5 3//5
f 9//1 16//1 17//1
f 5//6 9//6 6//6
f 6//7 10//7 2//7
f 3//7 13//7 12//7
f 13//7 3//7 2//7
f 14//6 8//6 12//6
f 8//6 14//6 5//6
f 18//7 17//7 19//7
f 16//6 20//6 17//6
f 15//3 7//3 19//3
f 16//8 9//8 20//8
f 18//1 11//1 17//1
f 7//3 15//3 20//3
