# Exported from Wings 3D 1.5.1
mtllib Pointer.mtl
o Cylinder1
#64 vertices, 124 faces
v 0.13966560 -8.4209852e-17 1.99968961
v 0.12903419 -5.3447711e-2 1.99968961
v 9.8758493e-2 -9.8758493e-2 1.99968961
v 5.3447711e-2 -0.12903419 1.99968961
v 1.2941557e-18 -0.13966560 1.99968961
v -5.3447711e-2 -0.12903419 1.99968961
v -9.8758493e-2 -9.8758493e-2 1.99968961
v -0.12903419 -5.3447711e-2 1.99968961
v -0.13966560 -8.4209852e-17 1.99968961
v -0.12903419 5.3447711e-2 1.99968961
v -9.8758493e-2 9.8758493e-2 1.99968961
v -5.3447711e-2 0.12903419 1.99968961
v -3.2914050e-17 0.13966560 1.99968961
v 5.3447711e-2 0.12903419 1.99968961
v 9.8758493e-2 9.8758493e-2 1.99968961
v 0.12903419 5.3447711e-2 1.99968961
v 0.13966560 -2.0667453e-16 -3.1038794e-4
v 0.12903419 -5.3447711e-2 -3.1038794e-4
v 9.8758493e-2 -9.8758493e-2 -3.1038794e-4
v 5.3447711e-2 -0.12903419 -3.1038794e-4
v 1.2941557e-18 -0.13966560 -3.1038794e-4
v -5.3447711e-2 -0.12903419 -3.1038794e-4
v -9.8758493e-2 -9.8758493e-2 -3.1038794e-4
v -0.12903419 -5.3447711e-2 -3.1038794e-4
v -0.13966560 -2.0667453e-16 -3.1038794e-4
v -0.12903419 5.3447711e-2 -3.1038794e-4
v -9.8758493e-2 9.8758493e-2 -3.1038794e-4
v -5.3447711e-2 0.12903419 -3.1038794e-4
v -3.2914050e-17 0.13966560 -3.1038794e-4
v 5.3447711e-2 0.12903419 -3.1038794e-4
v 9.8758493e-2 9.8758493e-2 -3.1038794e-4
v 0.12903419 5.3447711e-2 -3.1038794e-4
v 0.21450644 -8.8851475e-2 1.95476881
v 0.23218009 -1.4842132e-16 1.95476881
v 0.21450644 8.8851475e-2 1.95476881
v 0.16417612 0.16417612 1.95476881
v 8.8851475e-2 0.21450644 1.95476881
v -4.7821832e-17 0.23218009 1.95476881
v -8.8851475e-2 0.21450644 1.95476881
v -0.16417612 0.16417612 1.95476881
v -0.21450644 8.8851475e-2 1.95476881
v -0.23218009 -1.4842132e-16 1.95476881
v -0.21450644 -8.8851475e-2 1.95476881
v -0.16417612 -0.16417612 1.95476881
v -8.8851475e-2 -0.21450644 1.95476881
v 9.0458895e-18 -0.23218009 1.95476881
v 8.8851475e-2 -0.21450644 1.95476881
v 0.16417612 -0.16417612 1.95476881
v 1.0222538e-2 -4.2343139e-3 2.47705303
v 7.8239918e-3 -7.8239918e-3 2.47705303
v 4.2343139e-3 -1.0222538e-2 2.47705303
v 4.3249557e-18 -1.1064795e-2 2.47705303
v -4.2343139e-3 -1.0222538e-2 2.47705303
v -7.8239918e-3 -7.8239918e-3 2.47705303
v -1.0222538e-2 -4.2343139e-3 2.47705303
v -1.1064795e-2 -5.0637898e-17 2.47705303
v -1.0222538e-2 4.2343139e-3 2.47705303
v -7.8239918e-3 7.8239918e-3 2.47705303
v -4.2343139e-3 1.0222538e-2 2.47705303
v 1.6148625e-18 1.1064795e-2 2.47705303
v 4.2343139e-3 1.0222538e-2 2.47705303
v 7.8239918e-3 7.8239918e-3 2.47705303
v 1.0222538e-2 4.2343139e-3 2.47705303
v 1.1064795e-2 -5.0637898e-17 2.47705303
vn 1.00000000 -2.5469406e-16 1.5709289e-32
vn 1.00000000 -2.5469406e-16 1.5709289e-32
vn -0.43678747 9.7510476e-17 -0.89956473
vn -0.43678747 9.7510476e-17 -0.89956473
vn 0.92387953 -0.38268343 2.2567382e-17
vn 0.92387953 -0.38268343 2.2567382e-17
vn -0.40353900 0.16715133 -0.89956473
vn -0.40353900 0.16715133 -0.89956473
vn 0.92387953 -0.38268343 2.2567382e-17
vn 0.92387953 -0.38268343 2.2567382e-17
vn -0.40353900 0.16715133 -0.89956473
vn -0.40353900 0.16715133 -0.89956473
vn 0.70710678 -0.70710678 4.0570574e-17
vn 0.70710678 -0.70710678 4.0570574e-17
vn -0.30885538 0.30885538 -0.89956473
vn -0.30885538 0.30885538 -0.89956473
vn 0.38268343 -0.92387953 4.8684689e-17
vn 0.38268343 -0.92387953 4.8684689e-17
vn -0.16715133 0.40353900 -0.89956473
vn -0.16715133 0.40353900 -0.89956473
vn 0.38268343 -0.92387953 4.8684689e-17
vn 0.38268343 -0.92387953 4.8684689e-17
vn -0.16715133 0.40353900 -0.89956473
vn -0.16715133 0.40353900 -0.89956473
vn 0.0000000e+0 -1.00000000 4.8684689e-17
vn 0.0000000e+0 -1.00000000 4.8684689e-17
vn 2.0895102e-17 0.43678747 -0.89956473
vn 2.0895102e-17 0.43678747 -0.89956473
vn -0.38268343 -0.92387953 4.8684689e-17
vn -0.38268343 -0.92387953 4.8684689e-17
vn 0.16715133 0.40353900 -0.89956473
vn 0.16715133 0.40353900 -0.89956473
vn -0.38268343 -0.92387953 4.8684689e-17
vn -0.38268343 -0.92387953 4.8684689e-17
vn 0.16715133 0.40353900 -0.89956473
vn 0.16715133 0.40353900 -0.89956473
vn -0.70710678 -0.70710678 4.0570574e-17
vn -0.70710678 -0.70710678 4.0570574e-17
vn 0.30885538 0.30885538 -0.89956473
vn 0.30885538 0.30885538 -0.89956473
vn -0.92387953 -0.38268343 2.2567382e-17
vn -0.92387953 -0.38268343 2.2567382e-17
vn 0.40353900 0.16715133 -0.89956473
vn 0.40353900 0.16715133 -0.89956473
vn -0.92387953 -0.38268343 2.2567382e-17
vn -0.92387953 -0.38268343 2.2567382e-17
vn 0.40353900 0.16715133 -0.89956473
vn 0.40353900 0.16715133 -0.89956473
vn -1.00000000 -1.1319736e-16 7.0691801e-33
vn -1.00000000 -1.1319736e-16 7.0691801e-33
vn 0.43678747 4.1790204e-17 -0.89956473
vn 0.43678747 4.1790204e-17 -0.89956473
vn -0.92387953 0.38268343 -2.2313816e-17
vn -0.92387953 0.38268343 -2.2313816e-17
vn 0.40353900 -0.16715133 -0.89956473
vn 0.40353900 -0.16715133 -0.89956473
vn -0.92387953 0.38268343 -2.2313816e-17
vn -0.92387953 0.38268343 -2.2313816e-17
vn 0.40353900 -0.16715133 -0.89956473
vn 0.40353900 -0.16715133 -0.89956473
vn -0.70710678 0.70710678 -4.0570574e-17
vn -0.70710678 0.70710678 -4.0570574e-17
vn 0.30885538 -0.30885538 -0.89956473
vn 0.30885538 -0.30885538 -0.89956473
vn -0.38268343 0.92387953 -5.2741747e-17
vn -0.38268343 0.92387953 -5.2741747e-17
vn 0.16715133 -0.40353900 -0.89956473
vn 0.16715133 -0.40353900 -0.89956473
vn -0.38268343 0.92387953 -5.2741747e-17
vn -0.38268343 0.92387953 -5.2741747e-17
vn 0.16715133 -0.40353900 -0.89956473
vn 0.16715133 -0.40353900 -0.89956473
vn 0.0000000e+0 1.00000000 -4.8684689e-17
vn 0.0000000e+0 1.00000000 -4.8684689e-17
vn -2.7860136e-17 -0.43678747 -0.89956473
vn -2.7860136e-17 -0.43678747 -0.89956473
vn 0.38268343 0.92387953 -5.2741747e-17
vn 0.38268343 0.92387953 -5.2741747e-17
vn -0.16715133 -0.40353900 -0.89956473
vn -0.16715133 -0.40353900 -0.89956473
vn 0.38268343 0.92387953 -5.2741747e-17
vn 0.38268343 0.92387953 -5.2741747e-17
vn -0.16715133 -0.40353900 -0.89956473
vn -0.16715133 -0.40353900 -0.89956473
vn 0.70710678 0.70710678 -3.6513517e-17
vn -0.30885538 -0.30885538 -0.89956473
vn -0.30885538 -0.30885538 -0.89956473
vn 0.70710678 0.70710678 -3.6513517e-17
vn 0.92387953 0.38268343 -2.2313816e-17
vn 0.92387953 0.38268343 -2.2313816e-17
vn -0.40353900 -0.16715133 -0.89956473
vn -0.40353900 -0.16715133 -0.89956473
vn 0.92387953 0.38268343 -2.2313816e-17
vn -0.40353900 -0.16715133 -0.89956473
vn 0.92387953 0.38268343 -2.2313816e-17
vn -0.40353900 -0.16715133 -0.89956473
vn 1.00000000 0.0000000e+0 2.5356609e-19
vn 1.00000000 -7.0748349e-18 2.5356609e-19
vn 0.0000000e+0 -6.0855862e-17 -1.00000000
vn 1.00000000 0.0000000e+0 2.5356609e-19
vn 1.00000000 -7.0748349e-18 2.5356609e-19
vn 0.92387953 -0.38268343 2.2820948e-17
vn 0.92387953 -0.38268343 2.2820948e-17
vn -1.5019773e-15 1.2629986e-16 -1.00000000
vn -1.5019773e-15 1.2629986e-16 -1.00000000
vn -1.5019773e-15 1.2629986e-16 -1.00000000
vn 0.70710678 -0.70710678 4.0570574e-17
vn 0.70710678 -0.70710678 4.0570574e-17
vn -2.5070419e-16 4.5669660e-16 -1.00000000
vn -2.5070419e-16 4.5669660e-16 -1.00000000
vn -2.5070419e-16 4.5669660e-16 -1.00000000
vn 0.70710678 -0.70710678 4.0570574e-17
vn 0.70710678 -0.70710678 4.0570574e-17
vn 0.38268343 -0.92387953 4.8684689e-17
vn 0.38268343 -0.92387953 4.8684689e-17
vn -9.3375885e-17 3.5795515e-16 -1.00000000
vn -9.3375885e-17 3.5795515e-16 -1.00000000
vn -9.3375885e-17 3.5795515e-16 -1.00000000
vn 0.0000000e+0 -1.00000000 4.8684689e-17
vn 0.0000000e+0 -1.00000000 4.8684689e-17
vn -2.3920942e-17 3.4704313e-16 -1.00000000
vn -2.3920942e-17 3.4704313e-16 -1.00000000
vn -2.3920942e-17 3.4704313e-16 -1.00000000
vn 0.0000000e+0 -1.00000000 4.8684689e-17
vn 0.0000000e+0 -1.00000000 4.8684689e-17
vn -0.38268343 -0.92387953 4.8684689e-17
vn -0.38268343 -0.92387953 4.8684689e-17
vn 5.6408415e-17 4.1278188e-16 -1.00000000
vn 5.6408415e-17 4.1278188e-16 -1.00000000
vn 5.6408415e-17 4.1278188e-16 -1.00000000
vn -0.70710678 -0.70710678 4.0570574e-17
vn -0.70710678 -0.70710678 4.0570574e-17
vn 1.0675978e-15 3.1345559e-16 -1.00000000
vn 1.0675978e-15 3.1345559e-16 -1.00000000
vn 1.0675978e-15 3.1345559e-16 -1.00000000
vn -0.70710678 -0.70710678 4.0570574e-17
vn -0.70710678 -0.70710678 4.0570574e-17
vn -1.9344272e-18 -6.0855862e-17 -1.00000000
vn -0.92387953 -0.38268343 2.2820948e-17
vn -0.92387953 -0.38268343 2.2820948e-17
vn -1.9344272e-18 -6.0855862e-17 -1.00000000
vn -5.9626633e-18 -6.0855862e-17 -1.00000000
vn -1.00000000 -1.1319736e-16 2.5356609e-19
vn -1.00000000 -1.2027219e-16 2.5356609e-19
vn -1.00000000 -1.2027219e-16 2.5356609e-19
vn -1.00000000 -1.1319736e-16 2.5356609e-19
vn 9.4168937e-16 1.2629986e-16 -1.00000000
vn -0.92387953 0.38268343 -2.2313816e-17
vn -0.92387953 0.38268343 -2.2313816e-17
vn 9.4168937e-16 1.2629986e-16 -1.00000000
vn 9.4168937e-16 1.2629986e-16 -1.00000000
vn -0.70710678 0.70710678 -4.0570574e-17
vn -0.70710678 0.70710678 -4.0570574e-17
vn 9.7128227e-16 4.5669660e-16 -1.00000000
vn 9.7128227e-16 4.5669660e-16 -1.00000000
vn 9.7128227e-16 4.5669660e-16 -1.00000000
vn -0.70710678 0.70710678 -4.0570574e-17
vn -0.70710678 0.70710678 -4.0570574e-17
vn -0.38268343 0.92387953 -5.6798804e-17
vn -0.38268343 0.92387953 -5.6798804e-17
vn -9.3572793e-17 3.5795515e-16 -1.00000000
vn -9.3572793e-17 3.5795515e-16 -1.00000000
vn -9.3572793e-17 3.5795515e-16 -1.00000000
vn -1.4149670e-17 1.00000000 -5.6798804e-17
vn -1.4149670e-17 1.00000000 -5.6798804e-17
vn -2.3818592e-17 3.4704313e-16 -1.00000000
vn -2.3818592e-17 3.4704313e-16 -1.00000000
vn -2.3818592e-17 3.4704313e-16 -1.00000000
vn -1.4149670e-17 1.00000000 -5.6798804e-17
vn -1.4149670e-17 1.00000000 -5.6798804e-17
vn 0.38268343 0.92387953 -5.6798804e-17
vn 0.38268343 0.92387953 -5.6798804e-17
vn 5.7394111e-17 4.1278188e-16 -1.00000000
vn 5.7394111e-17 4.1278188e-16 -1.00000000
vn 5.7394111e-17 4.1278188e-16 -1.00000000
vn 0.70710678 0.70710678 -4.0570574e-17
vn 0.70710678 0.70710678 -4.0570574e-17
vn -1.3771730e-15 3.1345559e-16 -1.00000000
vn -1.3771730e-15 3.1345559e-16 -1.00000000
vn -1.3771730e-15 3.1345559e-16 -1.00000000
vn 0.70710678 0.70710678 -4.0570574e-17
vn 0.70710678 0.70710678 -4.0570574e-17
vn 0.92387953 0.38268343 -2.6370873e-17
vn 0.92387953 0.38268343 -2.6370873e-17
vn -1.8331297e-15 -6.0855862e-17 -1.00000000
vn -1.8331297e-15 -6.0855862e-17 -1.00000000
vn -0.40353900 0.16715133 -0.89956473
vn -0.40353900 0.16715133 -0.89956473
vn 0.85077573 -0.35240285 0.38986265
vn 0.85077573 -0.35240285 0.38986265
vn -0.43678747 -1.3930068e-17 -0.89956473
vn -0.43678747 -1.7412585e-17 -0.89956473
vn 0.92087302 -4.2326050e-17 0.38986265
vn 0.92087302 -4.2326050e-17 0.38986265
vn -0.43678747 -1.3930068e-17 -0.89956473
vn 0.92087302 -4.2326050e-17 0.38986265
vn 0.92087302 -4.2326050e-17 0.38986265
vn -0.43678747 -1.7412585e-17 -0.89956473
vn -0.40353900 -0.16715133 -0.89956473
vn -0.40353900 -0.16715133 -0.89956473
vn 0.85077573 0.35240285 0.38986265
vn 0.85077573 0.35240285 0.38986265
vn -0.30885538 -0.30885538 -0.89956473
vn -0.30885538 -0.30885538 -0.89956473
vn 0.65115555 0.65115555 0.38986265
vn 0.65115555 0.65115555 0.38986265
vn -0.30885538 -0.30885538 -0.89956473
vn 0.65115555 0.65115555 0.38986265
vn 0.65115555 0.65115555 0.38986265
vn -0.30885538 -0.30885538 -0.89956473
vn -0.16715133 -0.40353900 -0.89956473
vn -0.16715133 -0.40353900 -0.89956473
vn 0.29544271 0.87251662 0.38913797
vn 0.29544271 0.87251662 0.38913797
vn 0.29544271 0.87251662 0.38913797
vn -2.7860136e-17 -0.43678747 -0.89956473
vn -2.7860136e-17 -0.43678747 -0.89956473
vn -6.0944182e-2 0.91916128 0.38913797
vn -6.0944182e-2 0.91916128 0.38913797
vn -2.7860136e-17 -0.43678747 -0.89956473
vn -6.0944182e-2 0.91916128 0.38913797
vn -2.7860136e-17 -0.43678747 -0.89956473
vn 0.16715133 -0.40353900 -0.89956473
vn 0.16715133 -0.40353900 -0.89956473
vn -0.35240285 0.85077573 0.38986265
vn -0.35240285 0.85077573 0.38986265
vn 0.30885538 -0.30885538 -0.89956473
vn 0.30885538 -0.30885538 -0.89956473
vn -0.65115555 0.65115555 0.38986265
vn -0.65115555 0.65115555 0.38986265
vn 0.30885538 -0.30885538 -0.89956473
vn -0.65115555 0.65115555 0.38986265
vn -0.65115555 0.65115555 0.38986265
vn 0.30885538 -0.30885538 -0.89956473
vn 0.40353900 -0.16715133 -0.89956473
vn 0.40353900 -0.16715133 -0.89956473
vn -0.85077573 0.35240285 0.38986265
vn -0.85077573 0.35240285 0.38986265
vn 0.43678747 -1.7412585e-17 -0.89956473
vn 0.43678747 -1.3930068e-17 -0.89956473
vn -0.92087302 -1.0581512e-16 0.38986265
vn -0.92087302 -1.1286947e-16 0.38986265
vn 0.43678747 -1.7412585e-17 -0.89956473
vn -0.92087302 -1.0581512e-16 0.38986265
vn -0.92087302 -1.0581512e-16 0.38986265
vn 0.43678747 -1.7412585e-17 -0.89956473
vn 0.40353900 0.16715133 -0.89956473
vn 0.40353900 0.16715133 -0.89956473
vn -0.85077573 -0.35240285 0.38986265
vn -0.85077573 -0.35240285 0.38986265
vn 0.30885538 0.30885538 -0.89956473
vn 0.30885538 0.30885538 -0.89956473
vn -0.65115555 -0.65115555 0.38986265
vn -0.65115555 -0.65115555 0.38986265
vn 0.30885538 0.30885538 -0.89956473
vn -0.65115555 -0.65115555 0.38986265
vn -0.65115555 -0.65115555 0.38986265
vn 0.30885538 0.30885538 -0.89956473
vn 0.16715133 0.40353900 -0.89956473
vn 0.16715133 0.40353900 -0.89956473
vn -0.35240285 -0.85077573 0.38986265
vn -0.35240285 -0.85077573 0.38986265
vn -1.3930068e-17 0.43678747 -0.89956473
vn -1.7412585e-17 0.43678747 -0.89956473
vn -6.0944182e-2 -0.91916128 0.38913797
vn -1.3930068e-17 0.43678747 -0.89956473
vn -6.0944182e-2 -0.91916128 0.38913797
vn -6.0944182e-2 -0.91916128 0.38913797
vn -1.7412585e-17 0.43678747 -0.89956473
vn -0.16715133 0.40353900 -0.89956473
vn -0.16715133 0.40353900 -0.89956473
vn 0.35240285 -0.85077573 0.38986265
vn 0.35240285 -0.85077573 0.38986265
vn 0.35240285 -0.85077573 0.38986265
vn 0.35240285 -0.85077573 0.38986265
vn -0.30885538 0.30885538 -0.89956473
vn -0.30885538 0.30885538 -0.89956473
vn 0.69303921 -0.60685113 0.38913797
vn 0.69303921 -0.60685113 0.38913797
vn -0.30885538 0.30885538 -0.89956473
vn 0.69303921 -0.60685113 0.38913797
vn -0.30885538 0.30885538 -0.89956473
vn 0.85077573 -0.35240285 0.38986265
vn 0.85077573 -0.35240285 0.38986265
vn 3.1560544e-13 0.0000000e+0 1.00000000
vn 0.85077573 -0.35240285 0.38986265
vn 0.85077573 -0.35240285 0.38986265
vn 3.1560544e-13 0.0000000e+0 1.00000000
vn 0.60685113 -0.69303921 0.38913797
vn 0.60685113 -0.69303921 0.38913797
vn 0.60685113 -0.69303921 0.38913797
vn -1.9601405e-13 0.0000000e+0 1.00000000
vn -1.9601405e-13 0.0000000e+0 1.00000000
vn -1.9601405e-13 0.0000000e+0 1.00000000
vn 0.35240285 -0.85077573 0.38986265
vn 0.35240285 -0.85077573 0.38986265
vn 2.7510288e-14 0.0000000e+0 1.00000000
vn 2.7510288e-14 0.0000000e+0 1.00000000
vn 2.7510288e-14 0.0000000e+0 1.00000000
vn 6.0944182e-2 -0.91916128 0.38913797
vn 6.0944182e-2 -0.91916128 0.38913797
vn 6.0944182e-2 -0.91916128 0.38913797
vn -1.4629890e-14 0.0000000e+0 1.00000000
vn -1.4629890e-14 0.0000000e+0 1.00000000
vn -1.4629890e-14 0.0000000e+0 1.00000000
vn -0.35240285 -0.85077573 0.38986265
vn -0.35240285 -0.85077573 0.38986265
vn -0.35240285 -0.85077573 0.38986265
vn -0.35240285 -0.85077573 0.38986265
vn -1.6118445e-14 0.0000000e+0 1.00000000
vn -1.6118445e-14 0.0000000e+0 1.00000000
vn -1.6118445e-14 0.0000000e+0 1.00000000
vn -0.65115555 -0.65115555 0.38986265
vn -0.65115555 -0.65115555 0.38986265
vn -2.8327641e-14 0.0000000e+0 1.00000000
vn -2.8327641e-14 0.0000000e+0 1.00000000
vn -2.8327641e-14 0.0000000e+0 1.00000000
vn -0.85077573 -0.35240285 0.38986265
vn -0.85077573 -0.35240285 0.38986265
vn -0.85077573 -0.35240285 0.38986265
vn -0.85077573 -0.35240285 0.38986265
vn 1.0051083e-13 0.0000000e+0 1.00000000
vn 1.0051083e-13 0.0000000e+0 1.00000000
vn 1.0051083e-13 0.0000000e+0 1.00000000
vn -0.92087302 -1.1286947e-16 0.38986265
vn -0.92087302 -1.1286947e-16 0.38986265
vn 4.8640987e-13 0.0000000e+0 1.00000000
vn -0.85077573 0.35240285 0.38986265
vn -0.85077573 0.35240285 0.38986265
vn -0.85077573 0.35240285 0.38986265
vn -0.85077573 0.35240285 0.38986265
vn 2.4320494e-13 0.0000000e+0 1.00000000
vn 2.4320494e-13 0.0000000e+0 1.00000000
vn -0.65115555 0.65115555 0.38986265
vn -0.65115555 0.65115555 0.38986265
vn -2.0448755e-14 0.0000000e+0 1.00000000
vn -2.0448755e-14 0.0000000e+0 1.00000000
vn -2.0448755e-14 0.0000000e+0 1.00000000
vn -0.35240285 0.85077573 0.38986265
vn -0.35240285 0.85077573 0.38986265
vn -0.35240285 0.85077573 0.38986265
vn -0.35240285 0.85077573 0.38986265
vn 4.6656947e-14 0.0000000e+0 1.00000000
vn 4.6656947e-14 0.0000000e+0 1.00000000
vn 4.6656947e-14 0.0000000e+0 1.00000000
vn 6.0944182e-2 0.91916128 0.38913797
vn 6.0944182e-2 0.91916128 0.38913797
vn 6.0944182e-2 0.91916128 0.38913797
vn 2.8786188e-14 0.0000000e+0 1.00000000
vn 2.8786188e-14 0.0000000e+0 1.00000000
vn 2.8786188e-14 0.0000000e+0 1.00000000
vn 0.40805287 0.82587196 0.38913797
vn 0.40805287 0.82587196 0.38913797
vn 0.40805287 0.82587196 0.38913797
vn 5.4241775e-14 0.0000000e+0 1.00000000
vn 5.4241775e-14 0.0000000e+0 1.00000000
vn 5.4241775e-14 0.0000000e+0 1.00000000
vn 0.65115555 0.65115555 0.38986265
vn 0.65115555 0.65115555 0.38986265
vn -3.4871120e-14 0.0000000e+0 1.00000000
vn -3.4871120e-14 0.0000000e+0 1.00000000
vn -3.4871120e-14 0.0000000e+0 1.00000000
vn 0.85077573 0.35240285 0.38986265
vn 0.85077573 0.35240285 0.38986265
vn 1.1796493e-13 0.0000000e+0 1.00000000
vn 0.85077573 0.35240285 0.38986265
vn 0.85077573 0.35240285 0.38986265
vn 1.1796493e-13 0.0000000e+0 1.00000000
vn 1.1796493e-13 0.0000000e+0 1.00000000
vn 0.92087302 -1.2697815e-16 0.38986265
vn 9.7281974e-13 0.0000000e+0 1.00000000
vn 0.92087302 -1.2697815e-16 0.38986265
g Cylinder1_default
usemtl default
s 1
f 1//3 34//195 2//12
f 2//11 48//282 3//16
f 3//15 48//280 4//24
f 4//23 46//269 5//28
f 5//27 46//266 6//36
f 6//35 44//258 7//40
f 7//39 44//255 8//48
f 8//47 42//246 9//52
f 9//51 42//243 10//60
f 10//59 40//234 11//64
f 11//63 40//231 12//72
f 12//71 38//222 13//76
f 13//75 38//220 14//84
f 14//83 36//207 15//86
f 15//87 36//210 16//94
f 16//96 34//198 1//4
f 18//106 32//186 17//99
f 19//109 31//178 18//104
f 20//116 30//173 19//110
f 21//121 29//166 20//117
f 22//128 28//161 21//122
f 23//133 27//154 22//129
f 24//141 26//150 23//134
f 25//142 26//147 24//138
f 27//156 23//135 26//151
f 28//163 22//130 27//155
f 29//168 21//123 28//162
f 30//175 20//118 29//167
f 31//180 19//111 30//174
f 32//185 18//105 31//179
f 33//187 2//7 34//191
f 33//188 48//277 2//8
f 34//192 16//91 35//199
f 35//200 16//92 36//203
f 36//204 14//79 37//211
f 37//212 14//80 38//216
f 38//217 12//67 39//223
f 39//224 12//68 40//227
f 40//228 10//55 41//235
f 41//236 10//56 42//239
f 42//240 8//43 43//247
f 43//248 8//44 44//251
f 44//252 6//31 45//259
f 45//260 6//32 46//263
f 46//264 4//19 47//270
f 47//271 4//20 48//276
f 49//288 63//369 50//293
f 50//294 62//362 51//298
f 51//299 61//357 52//304
f 52//305 60//351 53//311
f 53//312 59//345 54//316
f 54//317 58//338 55//323
f 55//324 57//333 56//327
f 57//332 55//322 58//337
f 58//336 54//315 59//344
f 59//343 53//310 60//350
f 60//349 52//303 61//356
f 61//355 51//297 62//361
f 62//360 50//292 63//368
f 63//365 49//285 64//371
s 2
f 1//1 17//100 16//93
f 2//9 17//101 1//2
f 2//5 19//108 18//102
f 3//13 19//112 2//10
f 4//21 19//113 3//14
f 4//17 21//120 20//114
f 5//25 21//124 4//22
f 6//33 21//125 5//26
f 6//29 23//132 22//126
f 7//37 23//136 6//34
f 8//45 23//137 7//38
f 8//41 25//144 24//139
f 9//49 25//145 8//46
f 10//57 25//146 9//50
f 10//53 27//153 26//148
f 11//61 27//157 10//58
f 12//69 27//158 11//62
f 12//65 29//165 28//159
f 13//73 29//169 12//70
f 14//81 29//170 13//74
f 14//77 31//177 30//171
f 15//85 31//181 14//82
f 16//89 17//97 32//183
f 16//95 31//182 15//88
f 18//103 17//98 2//6
f 20//115 19//107 4//18
f 22//127 21//119 6//30
f 24//140 23//131 8//42
f 26//149 25//143 10//54
f 28//160 27//152 12//66
f 30//172 29//164 14//78
f 32//184 31//176 16//90
f 33//189 49//284 48//279
f 34//197 49//287 33//190
f 34//196 63//367 64//372
f 35//201 63//363 34//194
f 36//208 61//353 62//359
f 36//209 63//366 35//202
f 37//215 60//348 61//354
f 37//213 61//352 36//206
f 38//221 59//341 60//347
f 38//218 60//346 37//214
f 39//225 59//339 38//219
f 40//232 57//330 58//335
f 40//233 59//342 39//226
f 41//237 57//328 40//230
f 42//244 55//320 56//326
f 42//245 57//331 41//238
f 43//249 55//318 42//242
f 44//256 53//308 54//314
f 44//257 55//321 43//250
f 45//261 53//306 44//254
f 46//268 53//309 45//262
f 47//275 50//291 51//296
f 47//274 52//302 46//267
f 48//281 49//286 50//290
f 48//278 50//289 47//273
f 51//295 52//301 47//272
f 52//300 53//307 46//265
f 54//313 55//319 44//253
f 56//325 57//329 42//241
f 58//334 59//340 40//229
f 62//358 63//364 36//205
f 64//370 49//283 34//193
